<?xml version="1.0" encoding="UTF-8"?>
<svg xmlns="http://www.w3.org/2000/svg" xmlns:xlink="http://www.w3.org/1999/xlink" width="653.6pt" height="653.6pt" viewBox="0 0 653.6 653.6" version="1.1">
<g id="surface1">
<path style=" stroke:none;fill-rule:nonzero;fill:rgb(26.268005%,26.268005%,26.268005%);fill-opacity:1;" d="M 0.800781 0.800781 L 652.800781 0.800781 L 652.800781 652.800781 L 0.800781 652.800781 L 0.800781 0.800781 "/>
<path style=" stroke:none;fill-rule:nonzero;fill:rgb(100%,100%,100%);fill-opacity:1;" d="M 471.03125 205.921875 L 413.113281 221.371094 L 402.730469 187.703125 L 327.601563 167.664063 L 252.46875 187.703125 L 242.085938 221.371094 L 184.164063 205.921875 L 109.035156 225.960938 L 109.035156 429.242188 L 167.09375 444.726563 L 193.5625 437.671875 L 197.828125 452.921875 L 238.808594 463.851563 L 269.542969 455.65625 L 269.542969 472.050781 L 327.601563 487.535156 L 385.65625 472.050781 L 385.65625 455.65625 L 416.390625 463.851563 L 457.371094 452.921875 L 461.640625 437.671875 L 488.109375 444.726563 L 546.164063 429.242188 L 546.164063 225.960938 L 471.03125 205.921875 "/>
<path style=" stroke:none;fill-rule:nonzero;fill:rgb(100%,100%,100%);fill-opacity:1;" d="M 488.105469 343.09375 L 341.265625 343.09375 L 341.265625 443.824219 L 416.390625 463.851563 L 416.390625 425.605469 L 488.105469 444.726563 L 488.105469 343.09375 "/>
<path style=" stroke:none;fill-rule:nonzero;fill:rgb(0%,0%,0%);fill-opacity:1;" d="M 167.09375 343.09375 L 167.09375 444.726563 L 238.808594 425.605469 L 238.808594 463.851563 L 313.933594 443.824219 L 313.933594 343.09375 L 167.09375 343.09375 "/>
<path style=" stroke:none;fill-rule:nonzero;fill:rgb(0%,0%,0%);fill-opacity:1;" d="M 436.878906 298.453125 L 361.75 318.488281 L 327.597656 207.738281 L 402.726563 187.699219 L 436.878906 298.453125 "/>
<path style=" stroke:none;fill-rule:nonzero;fill:rgb(100%,100%,100%);fill-opacity:1;" d="M 361.75 318.488281 L 327.597656 207.742188 L 252.46875 187.703125 L 218.316406 298.457031 L 361.75 318.488281 "/>
<path style=" stroke:none;fill-rule:nonzero;fill:rgb(100%,100%,100%);fill-opacity:1;" d="M 436.882813 356.746094 L 361.757813 336.714844 L 395.910156 225.957031 L 471.035156 245.996094 L 436.882813 356.746094 "/>
<path style=" stroke:none;fill-rule:nonzero;fill:rgb(0%,0%,0%);fill-opacity:1;" d="M 218.320313 356.746094 L 293.445313 336.71875 L 259.292969 225.960938 L 184.164063 245.996094 L 218.320313 356.746094 "/>
<path style=" stroke:none;fill-rule:nonzero;fill:rgb(0%,0%,0%);fill-opacity:1;" d="M 471.035156 245.996094 L 436.882813 356.746094 L 402.730469 264.214844 L 327.601563 284.253906 L 327.601563 487.535156 L 385.65625 472.050781 L 385.65625 370.410156 L 416.390625 463.851563 L 457.371094 452.921875 L 488.109375 343.085938 L 488.105469 444.726563 L 546.164063 429.242188 L 546.164063 225.960938 L 471.035156 245.996094 "/>
<path style=" stroke:none;fill-rule:nonzero;fill:rgb(100%,100%,100%);fill-opacity:1;" d="M 184.164063 245.996094 L 218.316406 356.746094 L 252.46875 264.214844 L 327.601563 284.253906 L 327.601563 487.535156 L 269.542969 472.050781 L 269.542969 370.410156 L 238.808594 463.851563 L 197.828125 452.921875 L 167.089844 343.085938 L 167.09375 444.726563 L 109.035156 429.242188 L 109.035156 225.960938 L 184.164063 245.996094 "/>
<path style=" stroke:none;fill-rule:nonzero;fill:rgb(25.488281%,43.138123%,69.726563%);fill-opacity:1;" d="M 402.730469 187.703125 L 327.601563 167.664063 L 252.46875 187.703125 L 327.601563 207.746094 Z M 252.46875 264.214844 L 327.601563 284.253906 L 402.730469 264.214844 L 327.601563 244.175781 Z M 184.164063 205.921875 L 109.035156 225.960938 L 184.164063 245.996094 L 259.296875 225.960938 Z M 471.03125 205.921875 L 395.902344 225.960938 L 471.03125 245.996094 L 546.164063 225.960938 L 471.03125 205.921875 "/>
<path style=" stroke:none;fill-rule:nonzero;fill:rgb(0%,0%,0%);fill-opacity:1;" d="M 84.785156 532.582031 L 93.859375 559.261719 L 93.96875 559.261719 L 102.554688 532.582031 L 114.5625 532.582031 L 114.5625 571.375 L 106.574219 571.375 L 106.574219 543.882813 L 106.46875 543.882813 L 96.957031 571.375 L 90.386719 571.375 L 80.875 544.152344 L 80.765625 544.152344 L 80.765625 571.375 L 72.78125 571.375 L 72.78125 532.582031 L 84.785156 532.582031 "/>
<path style=" stroke:none;fill-rule:nonzero;fill:rgb(0%,0%,0%);fill-opacity:1;" d="M 141.402344 532.582031 L 155.910156 571.375 L 147.050781 571.375 L 144.117188 562.734375 L 129.613281 562.734375 L 126.570313 571.375 L 117.984375 571.375 L 132.652344 532.582031 Z M 141.890625 556.378906 L 137 542.144531 L 136.894531 542.144531 L 131.839844 556.378906 L 141.890625 556.378906 "/>
<path style=" stroke:none;fill-rule:nonzero;fill:rgb(0%,0%,0%);fill-opacity:1;" d="M 165.796875 561.8125 C 166.269531 562.71875 166.894531 563.453125 167.671875 564.011719 C 168.449219 564.574219 169.367188 564.988281 170.417969 565.261719 C 171.464844 565.535156 172.554688 565.671875 173.675781 565.671875 C 174.4375 565.671875 175.253906 565.609375 176.121094 565.480469 C 176.992188 565.351563 177.804688 565.109375 178.566406 564.746094 C 179.328125 564.386719 179.960938 563.886719 180.46875 563.253906 C 180.976563 562.617188 181.230469 561.816406 181.230469 560.835938 C 181.230469 559.785156 180.894531 558.933594 180.226563 558.28125 C 179.554688 557.628906 178.675781 557.089844 177.589844 556.652344 C 176.503906 556.21875 175.269531 555.835938 173.894531 555.511719 C 172.519531 555.183594 171.125 554.824219 169.710938 554.421875 C 168.261719 554.0625 166.851563 553.617188 165.472656 553.09375 C 164.097656 552.570313 162.867188 551.890625 161.777344 551.058594 C 160.691406 550.222656 159.8125 549.183594 159.144531 547.929688 C 158.472656 546.683594 158.136719 545.171875 158.136719 543.394531 C 158.136719 541.402344 158.5625 539.675781 159.414063 538.207031 C 160.265625 536.738281 161.382813 535.519531 162.757813 534.539063 C 164.132813 533.5625 165.691406 532.839844 167.429688 532.363281 C 169.167969 531.894531 170.90625 531.660156 172.644531 531.660156 C 174.675781 531.660156 176.621094 531.886719 178.488281 532.339844 C 180.351563 532.789063 182.007813 533.523438 183.460938 534.539063 C 184.90625 535.554688 186.058594 536.847656 186.90625 538.425781 C 187.757813 540 188.183594 541.910156 188.183594 544.15625 L 179.925781 544.15625 C 179.855469 542.996094 179.609375 542.035156 179.195313 541.277344 C 178.777344 540.515625 178.222656 539.917969 177.535156 539.484375 C 176.847656 539.046875 176.058594 538.738281 175.171875 538.558594 C 174.285156 538.378906 173.316406 538.285156 172.265625 538.285156 C 171.578125 538.285156 170.886719 538.359375 170.199219 538.503906 C 169.511719 538.648438 168.886719 538.902344 168.328125 539.265625 C 167.765625 539.628906 167.300781 540.078125 166.941406 540.621094 C 166.578125 541.167969 166.398438 541.855469 166.398438 542.6875 C 166.398438 543.449219 166.542969 544.066406 166.832031 544.535156 C 167.121094 545.007813 167.691406 545.441406 168.542969 545.839844 C 169.394531 546.238281 170.574219 546.636719 172.074219 547.035156 C 173.578125 547.433594 175.542969 547.941406 177.972656 548.554688 C 178.695313 548.703125 179.699219 548.964844 180.988281 549.34375 C 182.269531 549.722656 183.550781 550.328125 184.816406 551.164063 C 186.085938 551.996094 187.179688 553.113281 188.105469 554.503906 C 189.027344 555.898438 189.488281 557.683594 189.488281 559.855469 C 189.488281 561.632813 189.144531 563.28125 188.457031 564.800781 C 187.769531 566.320313 186.746094 567.636719 185.386719 568.742188 C 184.027344 569.847656 182.34375 570.707031 180.335938 571.320313 C 178.324219 571.9375 175.996094 572.246094 173.351563 572.246094 C 171.214844 572.246094 169.140625 571.980469 167.132813 571.457031 C 165.121094 570.933594 163.34375 570.109375 161.804688 568.984375 C 160.265625 567.863281 159.042969 566.433594 158.140625 564.691406 C 157.234375 562.957031 156.800781 560.890625 156.835938 558.5 L 165.09375 558.5 C 165.09375 559.800781 165.328125 560.90625 165.796875 561.8125 "/>
<path style=" stroke:none;fill-rule:nonzero;fill:rgb(0%,0%,0%);fill-opacity:1;" d="M 201.058594 561.8125 C 201.53125 562.71875 202.152344 563.453125 202.933594 564.011719 C 203.714844 564.574219 204.628906 564.988281 205.679688 565.261719 C 206.730469 565.535156 207.816406 565.671875 208.9375 565.671875 C 209.699219 565.671875 210.515625 565.609375 211.382813 565.480469 C 212.253906 565.351563 213.066406 565.109375 213.828125 564.746094 C 214.589844 564.386719 215.222656 563.886719 215.730469 563.253906 C 216.234375 562.617188 216.488281 561.816406 216.488281 560.835938 C 216.488281 559.785156 216.15625 558.933594 215.484375 558.28125 C 214.8125 557.628906 213.9375 557.089844 212.851563 556.652344 C 211.765625 556.21875 210.53125 555.835938 209.152344 555.511719 C 207.777344 555.183594 206.386719 554.824219 204.972656 554.421875 C 203.519531 554.0625 202.109375 553.617188 200.734375 553.09375 C 199.355469 552.570313 198.125 551.890625 197.039063 551.058594 C 195.949219 550.222656 195.074219 549.183594 194.402344 547.929688 C 193.734375 546.683594 193.398438 545.171875 193.398438 543.394531 C 193.398438 541.402344 193.824219 539.675781 194.675781 538.207031 C 195.527344 536.738281 196.640625 535.519531 198.015625 534.539063 C 199.394531 533.5625 200.949219 532.839844 202.6875 532.363281 C 204.429688 531.894531 206.167969 531.660156 207.90625 531.660156 C 209.933594 531.660156 211.882813 531.886719 213.746094 532.339844 C 215.613281 532.789063 217.269531 533.523438 218.71875 534.539063 C 220.164063 535.554688 221.316406 536.847656 222.167969 538.425781 C 223.019531 540 223.445313 541.910156 223.445313 544.15625 L 215.1875 544.15625 C 215.113281 542.996094 214.871094 542.035156 214.453125 541.277344 C 214.035156 540.515625 213.484375 539.917969 212.796875 539.484375 C 212.109375 539.046875 211.320313 538.738281 210.433594 538.558594 C 209.542969 538.378906 208.574219 538.285156 207.527344 538.285156 C 206.835938 538.285156 206.148438 538.359375 205.460938 538.503906 C 204.773438 538.648438 204.148438 538.902344 203.585938 539.265625 C 203.023438 539.628906 202.5625 540.078125 202.203125 540.621094 C 201.839844 541.167969 201.65625 541.855469 201.65625 542.6875 C 201.65625 543.449219 201.800781 544.066406 202.09375 544.535156 C 202.382813 545.007813 202.953125 545.441406 203.804688 545.839844 C 204.652344 546.238281 205.832031 546.636719 207.335938 547.035156 C 208.839844 547.433594 210.804688 547.941406 213.230469 548.554688 C 213.953125 548.703125 214.960938 548.964844 216.246094 549.34375 C 217.53125 549.722656 218.808594 550.328125 220.078125 551.164063 C 221.347656 551.996094 222.441406 553.113281 223.363281 554.503906 C 224.289063 555.898438 224.75 557.683594 224.75 559.855469 C 224.75 561.632813 224.40625 563.28125 223.71875 564.800781 C 223.027344 566.320313 222.003906 567.636719 220.648438 568.742188 C 219.289063 569.847656 217.605469 570.707031 215.59375 571.320313 C 213.585938 571.9375 211.257813 572.246094 208.613281 572.246094 C 206.476563 572.246094 204.402344 571.980469 202.390625 571.457031 C 200.382813 570.933594 198.605469 570.109375 197.066406 568.984375 C 195.527344 567.863281 194.304688 566.433594 193.398438 564.691406 C 192.492188 562.957031 192.058594 560.890625 192.097656 558.5 L 200.355469 558.5 C 200.355469 559.800781 200.589844 560.90625 201.058594 561.8125 "/>
<path style=" stroke:none;fill-rule:nonzero;fill:rgb(0%,0%,0%);fill-opacity:1;" d="M 238.332031 532.582031 L 238.332031 571.375 L 229.800781 571.375 L 229.800781 532.582031 L 238.332031 532.582031 "/>
<path style=" stroke:none;fill-rule:nonzero;fill:rgb(0%,0%,0%);fill-opacity:1;" d="M 254.25 571.375 L 241.699219 532.582031 L 250.449219 532.582031 L 259.089844 559.855469 L 259.195313 559.855469 L 267.941406 532.582031 L 276.746094 532.582031 L 263.867188 571.375 L 254.25 571.375 "/>
<path style=" stroke:none;fill-rule:nonzero;fill:rgb(0%,0%,0%);fill-opacity:1;" d="M 309.074219 532.582031 L 309.074219 539.753906 L 288.589844 539.753906 L 288.589844 548.066406 L 307.390625 548.066406 L 307.390625 554.695313 L 288.589844 554.695313 L 288.589844 564.203125 L 309.507813 564.203125 L 309.507813 571.375 L 280.058594 571.375 L 280.058594 532.582031 L 309.074219 532.582031 "/>
<path style=" stroke:none;fill-rule:nonzero;fill:rgb(0%,0%,0%);fill-opacity:1;" d="M 347.105469 532.582031 C 349.605469 532.582031 351.929688 532.980469 354.085938 533.773438 C 356.242188 534.574219 358.109375 535.769531 359.683594 537.359375 C 361.257813 538.957031 362.492188 540.945313 363.378906 543.339844 C 364.265625 545.730469 364.710938 548.535156 364.710938 551.761719 C 364.710938 554.585938 364.347656 557.195313 363.625 559.585938 C 362.898438 561.972656 361.804688 564.039063 360.335938 565.777344 C 358.871094 567.515625 357.039063 568.886719 354.847656 569.878906 C 352.65625 570.878906 350.074219 571.375 347.105469 571.375 L 330.371094 571.375 L 330.371094 532.582031 Z M 346.507813 564.203125 C 347.738281 564.203125 348.933594 564.003906 350.09375 563.605469 C 351.253906 563.207031 352.285156 562.542969 353.191406 561.621094 C 354.09375 560.699219 354.820313 559.496094 355.363281 558.007813 C 355.90625 556.523438 356.179688 554.714844 356.179688 552.578125 C 356.179688 550.621094 355.988281 548.855469 355.609375 547.277344 C 355.230469 545.703125 354.601563 544.355469 353.734375 543.230469 C 352.863281 542.109375 351.714844 541.246094 350.285156 540.648438 C 348.855469 540.050781 347.085938 539.753906 344.984375 539.753906 L 338.902344 539.753906 L 338.902344 564.203125 L 346.507813 564.203125 "/>
<path style=" stroke:none;fill-rule:nonzero;fill:rgb(0%,0%,0%);fill-opacity:1;" d="M 366.449219 532.582031 L 376.011719 532.582031 L 385.085938 547.902344 L 394.105469 532.582031 L 403.613281 532.582031 L 389.214844 556.488281 L 389.214844 571.375 L 380.683594 571.375 L 380.683594 556.269531 L 366.449219 532.582031 "/>
<path style=" stroke:none;fill-rule:nonzero;fill:rgb(0%,0%,0%);fill-opacity:1;" d="M 415.347656 532.582031 L 431.539063 558.605469 L 431.648438 558.605469 L 431.648438 532.582031 L 439.632813 532.582031 L 439.632813 571.375 L 431.105469 571.375 L 414.96875 545.402344 L 414.859375 545.402344 L 414.859375 571.375 L 406.871094 571.375 L 406.871094 532.582031 L 415.347656 532.582031 "/>
<path style=" stroke:none;fill-rule:nonzero;fill:rgb(0%,0%,0%);fill-opacity:1;" d="M 466.476563 532.582031 L 480.980469 571.375 L 472.125 571.375 L 469.191406 562.734375 L 454.6875 562.734375 L 451.644531 571.375 L 443.058594 571.375 L 457.726563 532.582031 Z M 466.964844 556.378906 L 462.074219 542.144531 L 461.964844 542.144531 L 456.914063 556.378906 L 466.964844 556.378906 "/>
<path style=" stroke:none;fill-rule:nonzero;fill:rgb(0%,0%,0%);fill-opacity:1;" d="M 496.359375 532.582031 L 505.429688 559.261719 L 505.539063 559.261719 L 514.125 532.582031 L 526.132813 532.582031 L 526.132813 571.375 L 518.144531 571.375 L 518.144531 543.882813 L 518.039063 543.882813 L 508.527344 571.375 L 501.953125 571.375 L 492.445313 544.152344 L 492.335938 544.152344 L 492.335938 571.375 L 484.351563 571.375 L 484.351563 532.582031 L 496.359375 532.582031 "/>
<path style=" stroke:none;fill-rule:nonzero;fill:rgb(0%,0%,0%);fill-opacity:1;" d="M 542.160156 532.582031 L 542.160156 571.375 L 533.628906 571.375 L 533.628906 532.582031 L 542.160156 532.582031 "/>
<path style=" stroke:none;fill-rule:nonzero;fill:rgb(0%,0%,0%);fill-opacity:1;" d="M 574.542969 542.929688 C 574.035156 542.117188 573.402344 541.402344 572.644531 540.785156 C 571.882813 540.167969 571.019531 539.6875 570.0625 539.34375 C 569.101563 539 568.097656 538.828125 567.046875 538.828125 C 565.125 538.828125 563.496094 539.199219 562.15625 539.941406 C 560.816406 540.6875 559.730469 541.679688 558.894531 542.929688 C 558.0625 544.179688 557.457031 545.601563 557.078125 547.195313 C 556.695313 548.789063 556.507813 550.4375 556.507813 552.140625 C 556.507813 553.769531 556.695313 555.355469 557.078125 556.894531 C 557.457031 558.433594 558.0625 559.820313 558.894531 561.050781 C 559.730469 562.28125 560.816406 563.269531 562.15625 564.011719 C 563.496094 564.753906 565.125 565.125 567.046875 565.125 C 569.652344 565.125 571.691406 564.332031 573.160156 562.734375 C 574.625 561.140625 575.519531 559.039063 575.847656 556.433594 L 584.105469 556.433594 C 583.890625 558.859375 583.328125 561.050781 582.421875 563.007813 C 581.515625 564.960938 580.320313 566.628906 578.835938 568.003906 C 577.351563 569.382813 575.613281 570.433594 573.621094 571.15625 C 571.628906 571.878906 569.4375 572.242188 567.046875 572.242188 C 564.074219 572.242188 561.402344 571.726563 559.03125 570.695313 C 556.660156 569.664063 554.65625 568.242188 553.027344 566.429688 C 551.398438 564.617188 550.148438 562.488281 549.277344 560.046875 C 548.40625 557.601563 547.972656 554.964844 547.972656 552.140625 C 547.972656 549.242188 548.40625 546.554688 549.277344 544.070313 C 550.148438 541.589844 551.394531 539.425781 553.027344 537.578125 C 554.65625 535.730469 556.660156 534.28125 559.03125 533.230469 C 561.402344 532.183594 564.074219 531.65625 567.046875 531.65625 C 569.183594 531.65625 571.203125 531.964844 573.105469 532.578125 C 575.003906 533.195313 576.707031 534.09375 578.210938 535.265625 C 579.714844 536.445313 580.953125 537.902344 581.933594 539.644531 C 582.910156 541.382813 583.527344 543.371094 583.78125 545.617188 L 575.519531 545.617188 C 575.378906 544.644531 575.050781 543.746094 574.542969 542.929688 "/>
<path style=" stroke:none;fill-rule:nonzero;fill:rgb(0%,0%,0%);fill-opacity:1;" d="M 78.054688 592.746094 L 86.023438 592.746094 L 93.585938 605.515625 L 101.101563 592.746094 L 109.027344 592.746094 L 97.027344 612.667969 L 97.027344 625.074219 L 89.917969 625.074219 L 89.917969 612.488281 L 78.054688 592.746094 "/>
<path style=" stroke:none;fill-rule:nonzero;fill:rgb(0%,0%,0%);fill-opacity:1;" d="M 106.171875 608.300781 C 106.746094 606.777344 107.5625 605.480469 108.617188 604.40625 C 109.675781 603.335938 110.941406 602.503906 112.421875 601.914063 C 113.898438 601.328125 115.558594 601.03125 117.402344 601.03125 C 119.242188 601.03125 120.910156 601.328125 122.40625 601.914063 C 123.898438 602.503906 125.171875 603.335938 126.230469 604.40625 C 127.289063 605.480469 128.101563 606.777344 128.675781 608.300781 C 129.25 609.824219 129.535156 611.523438 129.535156 613.394531 C 129.535156 615.265625 129.25 616.957031 128.675781 618.464844 C 128.101563 619.976563 127.289063 621.265625 126.230469 622.335938 C 125.175781 623.410156 123.898438 624.230469 122.40625 624.804688 C 120.910156 625.378906 119.242188 625.664063 117.402344 625.664063 C 115.558594 625.664063 113.898438 625.378906 112.421875 624.804688 C 110.941406 624.230469 109.671875 623.410156 108.617188 622.335938 C 107.5625 621.265625 106.746094 619.976563 106.171875 618.464844 C 105.601563 616.957031 105.3125 615.265625 105.3125 613.394531 C 105.3125 611.523438 105.601563 609.824219 106.171875 608.300781 Z M 112.015625 616.132813 C 112.195313 617.023438 112.503906 617.824219 112.941406 618.535156 C 113.378906 619.242188 113.960938 619.808594 114.683594 620.230469 C 115.410156 620.652344 116.316406 620.863281 117.402344 620.863281 C 118.488281 620.863281 119.402344 620.652344 120.140625 620.230469 C 120.878906 619.808594 121.46875 619.242188 121.90625 618.535156 C 122.34375 617.824219 122.652344 617.023438 122.835938 616.132813 C 123.015625 615.246094 123.105469 614.332031 123.105469 613.394531 C 123.105469 612.457031 123.015625 611.535156 122.835938 610.632813 C 122.652344 609.726563 122.34375 608.929688 121.90625 608.230469 C 121.46875 607.539063 120.882813 606.972656 120.140625 606.535156 C 119.398438 606.097656 118.488281 605.878906 117.402344 605.878906 C 116.316406 605.878906 115.410156 606.097656 114.683594 606.535156 C 113.960938 606.972656 113.378906 607.539063 112.941406 608.230469 C 112.503906 608.929688 112.195313 609.726563 112.015625 610.632813 C 111.832031 611.535156 111.742188 612.457031 111.742188 613.394531 C 111.742188 614.332031 111.835938 615.246094 112.015625 616.132813 "/>
<path style=" stroke:none;fill-rule:nonzero;fill:rgb(0%,0%,0%);fill-opacity:1;" d="M 149.550781 625.074219 L 149.550781 621.816406 L 149.414063 621.816406 C 148.597656 623.175781 147.542969 624.15625 146.242188 624.761719 C 144.945313 625.363281 143.617188 625.664063 142.257813 625.664063 C 140.539063 625.664063 139.128906 625.4375 138.027344 624.984375 C 136.921875 624.53125 136.054688 623.890625 135.421875 623.0625 C 134.789063 622.230469 134.34375 621.21875 134.085938 620.027344 C 133.828125 618.835938 133.703125 617.515625 133.703125 616.066406 L 133.703125 601.667969 L 140.132813 601.667969 L 140.132813 614.890625 C 140.132813 616.820313 140.433594 618.261719 141.035156 619.214844 C 141.640625 620.164063 142.714844 620.640625 144.253906 620.640625 C 146.003906 620.640625 147.269531 620.117188 148.054688 619.074219 C 148.839844 618.035156 149.230469 616.324219 149.230469 613.9375 L 149.230469 601.667969 L 155.660156 601.667969 L 155.660156 625.074219 L 149.550781 625.074219 "/>
<path style=" stroke:none;fill-rule:nonzero;fill:rgb(0%,0%,0%);fill-opacity:1;" d="M 166.664063 601.667969 L 166.664063 606.015625 L 166.753906 606.015625 C 167.054688 605.289063 167.464844 604.617188 167.976563 604 C 168.488281 603.382813 169.078125 602.851563 169.742188 602.414063 C 170.40625 601.976563 171.113281 601.636719 171.871094 601.394531 C 172.625 601.15625 173.410156 601.035156 174.226563 601.035156 C 174.648438 601.035156 175.113281 601.109375 175.628906 601.261719 L 175.628906 607.238281 C 175.324219 607.179688 174.964844 607.125 174.539063 607.078125 C 174.117188 607.035156 173.710938 607.011719 173.320313 607.011719 C 172.140625 607.011719 171.144531 607.207031 170.328125 607.601563 C 169.515625 607.992188 168.859375 608.527344 168.359375 609.207031 C 167.863281 609.886719 167.507813 610.675781 167.296875 611.585938 C 167.085938 612.492188 166.980469 613.46875 166.980469 614.527344 L 166.980469 625.078125 L 160.550781 625.078125 L 160.550781 601.667969 L 166.664063 601.667969 "/>
<path style=" stroke:none;fill-rule:nonzero;fill:rgb(0%,0%,0%);fill-opacity:1;" d="M 210.898438 625.074219 L 206.734375 609.363281 L 206.644531 609.363281 L 202.660156 625.074219 L 196.003906 625.074219 L 188.578125 601.667969 L 195.371094 601.667969 L 199.671875 617.558594 L 199.761719 617.558594 L 203.652344 601.667969 L 209.902344 601.667969 L 213.886719 617.515625 L 213.976563 617.515625 L 218.28125 601.667969 L 224.890625 601.667969 L 217.511719 625.074219 L 210.898438 625.074219 "/>
<path style=" stroke:none;fill-rule:nonzero;fill:rgb(0%,0%,0%);fill-opacity:1;" d="M 227.742188 608.300781 C 228.316406 606.777344 229.128906 605.480469 230.1875 604.40625 C 231.242188 603.335938 232.511719 602.503906 233.988281 601.914063 C 235.46875 601.328125 237.128906 601.03125 238.972656 601.03125 C 240.8125 601.03125 242.480469 601.328125 243.972656 601.914063 C 245.46875 602.503906 246.742188 603.335938 247.800781 604.40625 C 248.855469 605.480469 249.671875 606.777344 250.246094 608.300781 C 250.816406 609.824219 251.105469 611.523438 251.105469 613.394531 C 251.105469 615.265625 250.816406 616.957031 250.246094 618.464844 C 249.671875 619.976563 248.855469 621.265625 247.800781 622.335938 C 246.742188 623.410156 245.46875 624.230469 243.972656 624.804688 C 242.480469 625.378906 240.8125 625.664063 238.972656 625.664063 C 237.128906 625.664063 235.46875 625.378906 233.988281 624.804688 C 232.511719 624.230469 231.242188 623.410156 230.1875 622.335938 C 229.128906 621.265625 228.316406 619.976563 227.742188 618.464844 C 227.167969 616.957031 226.882813 615.265625 226.882813 613.394531 C 226.882813 611.523438 227.167969 609.824219 227.742188 608.300781 Z M 233.582031 616.132813 C 233.765625 617.023438 234.074219 617.824219 234.511719 618.535156 C 234.949219 619.242188 235.53125 619.808594 236.253906 620.230469 C 236.980469 620.652344 237.886719 620.863281 238.972656 620.863281 C 240.058594 620.863281 240.96875 620.652344 241.710938 620.230469 C 242.449219 619.808594 243.039063 619.242188 243.476563 618.535156 C 243.914063 617.824219 244.222656 617.023438 244.40625 616.132813 C 244.585938 615.246094 244.675781 614.332031 244.675781 613.394531 C 244.675781 612.457031 244.585938 611.535156 244.40625 610.632813 C 244.222656 609.726563 243.914063 608.929688 243.476563 608.230469 C 243.039063 607.539063 242.449219 606.972656 241.710938 606.535156 C 240.96875 606.097656 240.058594 605.878906 238.972656 605.878906 C 237.886719 605.878906 236.980469 606.097656 236.253906 606.535156 C 235.53125 606.972656 234.949219 607.539063 234.511719 608.230469 C 234.074219 608.929688 233.765625 609.726563 233.582031 610.632813 C 233.402344 611.535156 233.3125 612.457031 233.3125 613.394531 C 233.3125 614.332031 233.402344 615.246094 233.582031 616.132813 "/>
<path style=" stroke:none;fill-rule:nonzero;fill:rgb(0%,0%,0%);fill-opacity:1;" d="M 261.382813 601.667969 L 261.382813 606.015625 L 261.472656 606.015625 C 261.773438 605.289063 262.183594 604.617188 262.695313 604 C 263.207031 603.382813 263.796875 602.851563 264.460938 602.414063 C 265.125 601.976563 265.835938 601.636719 266.589844 601.394531 C 267.34375 601.15625 268.128906 601.035156 268.945313 601.035156 C 269.367188 601.035156 269.835938 601.109375 270.347656 601.261719 L 270.347656 607.238281 C 270.046875 607.179688 269.683594 607.125 269.261719 607.078125 C 268.839844 607.035156 268.429688 607.011719 268.039063 607.011719 C 266.859375 607.011719 265.863281 607.207031 265.050781 607.601563 C 264.234375 607.992188 263.578125 608.527344 263.078125 609.207031 C 262.582031 609.886719 262.226563 610.675781 262.015625 611.585938 C 261.804688 612.492188 261.699219 613.46875 261.699219 614.527344 L 261.699219 625.078125 L 255.269531 625.078125 L 255.269531 601.667969 L 261.382813 601.667969 "/>
<path style=" stroke:none;fill-rule:nonzero;fill:rgb(0%,0%,0%);fill-opacity:1;" d="M 279.492188 592.746094 L 279.492188 625.074219 L 273.066406 625.074219 L 273.066406 592.746094 L 279.492188 592.746094 "/>
<path style=" stroke:none;fill-rule:nonzero;fill:rgb(0%,0%,0%);fill-opacity:1;" d="M 301.183594 622.085938 C 300.425781 623.355469 299.4375 624.269531 298.214844 624.824219 C 296.992188 625.386719 295.613281 625.664063 294.074219 625.664063 C 292.320313 625.664063 290.78125 625.324219 289.457031 624.644531 C 288.128906 623.964844 287.03125 623.046875 286.171875 621.882813 C 285.3125 620.722656 284.664063 619.386719 284.226563 617.878906 C 283.785156 616.367188 283.570313 614.796875 283.570313 613.167969 C 283.570313 611.597656 283.785156 610.082031 284.226563 608.617188 C 284.664063 607.152344 285.3125 605.863281 286.171875 604.746094 C 287.03125 603.628906 288.113281 602.730469 289.410156 602.050781 C 290.707031 601.371094 292.21875 601.03125 293.9375 601.03125 C 295.324219 601.03125 296.644531 601.328125 297.898438 601.914063 C 299.152344 602.503906 300.140625 603.371094 300.863281 604.519531 L 300.953125 604.519531 L 300.953125 592.746094 L 307.386719 592.746094 L 307.386719 625.074219 L 301.273438 625.074219 L 301.273438 622.085938 Z M 300.910156 610.519531 C 300.730469 609.628906 300.417969 608.84375 299.980469 608.164063 C 299.546875 607.484375 298.980469 606.9375 298.285156 606.511719 C 297.589844 606.089844 296.714844 605.878906 295.65625 605.878906 C 294.601563 605.878906 293.710938 606.089844 292.984375 606.511719 C 292.261719 606.9375 291.679688 607.492188 291.242188 608.1875 C 290.804688 608.882813 290.488281 609.675781 290.292969 610.566406 C 290.097656 611.457031 289.996094 612.382813 289.996094 613.351563 C 289.996094 614.253906 290.101563 615.160156 290.316406 616.066406 C 290.527344 616.972656 290.867188 617.78125 291.335938 618.488281 C 291.800781 619.199219 292.390625 619.773438 293.101563 620.207031 C 293.808594 620.644531 294.664063 620.863281 295.65625 620.863281 C 296.714844 620.863281 297.597656 620.652344 298.304688 620.230469 C 299.015625 619.808594 299.582031 619.242188 300.003906 618.535156 C 300.425781 617.824219 300.730469 617.019531 300.910156 616.109375 C 301.089844 615.203125 301.183594 614.269531 301.183594 613.304688 C 301.183594 612.335938 301.089844 611.410156 300.910156 610.519531 "/>
<path style=" stroke:none;fill-rule:nonzero;fill:rgb(0%,0%,0%);fill-opacity:1;" d="M 324.996094 598.042969 L 324.996094 592.746094 L 331.425781 592.746094 L 331.425781 598.042969 Z M 331.425781 601.667969 L 331.425781 625.074219 L 324.996094 625.074219 L 324.996094 601.667969 L 331.425781 601.667969 "/>
<path style=" stroke:none;fill-rule:nonzero;fill:rgb(0%,0%,0%);fill-opacity:1;" d="M 341.910156 619.257813 C 342.195313 619.757813 342.566406 620.164063 343.019531 620.480469 C 343.472656 620.796875 343.992188 621.03125 344.578125 621.183594 C 345.171875 621.332031 345.78125 621.40625 346.414063 621.40625 C 346.867188 621.40625 347.34375 621.355469 347.839844 621.25 C 348.339844 621.144531 348.789063 620.976563 349.199219 620.75 C 349.605469 620.527344 349.945313 620.222656 350.21875 619.847656 C 350.488281 619.46875 350.625 618.992188 350.625 618.417969 C 350.625 617.457031 349.984375 616.730469 348.703125 616.246094 C 347.417969 615.761719 345.628906 615.28125 343.335938 614.796875 C 342.398438 614.585938 341.484375 614.335938 340.597656 614.050781 C 339.703125 613.765625 338.914063 613.386719 338.21875 612.917969 C 337.523438 612.453125 336.964844 611.859375 336.542969 611.152344 C 336.121094 610.445313 335.910156 609.574219 335.910156 608.546875 C 335.910156 607.039063 336.203125 605.800781 336.792969 604.835938 C 337.382813 603.871094 338.15625 603.109375 339.125 602.546875 C 340.089844 601.992188 341.175781 601.597656 342.382813 601.371094 C 343.589844 601.144531 344.828125 601.03125 346.097656 601.03125 C 347.363281 601.03125 348.59375 601.152344 349.785156 601.394531 C 350.980469 601.636719 352.042969 602.042969 352.980469 602.617188 C 353.914063 603.1875 354.691406 603.953125 355.3125 604.902344 C 355.929688 605.851563 356.300781 607.050781 356.421875 608.5 L 350.308594 608.5 C 350.21875 607.265625 349.75 606.425781 348.902344 605.988281 C 348.058594 605.550781 347.0625 605.332031 345.917969 605.332031 C 345.554688 605.332031 345.160156 605.355469 344.738281 605.398438 C 344.316406 605.445313 343.929688 605.542969 343.585938 605.695313 C 343.238281 605.84375 342.941406 606.066406 342.699219 606.351563 C 342.460938 606.636719 342.339844 607.023438 342.339844 607.503906 C 342.339844 608.078125 342.550781 608.546875 342.972656 608.910156 C 343.394531 609.269531 343.945313 609.566406 344.625 609.792969 C 345.304688 610.019531 346.078125 610.222656 346.957031 610.402344 C 347.832031 610.585938 348.722656 610.78125 349.628906 610.992188 C 350.5625 611.203125 351.476563 611.460938 352.367188 611.761719 C 353.257813 612.066406 354.050781 612.464844 354.746094 612.960938 C 355.4375 613.460938 355.996094 614.078125 356.421875 614.816406 C 356.84375 615.558594 357.054688 616.46875 357.054688 617.554688 C 357.054688 619.097656 356.742188 620.386719 356.128906 621.429688 C 355.507813 622.46875 354.699219 623.308594 353.703125 623.941406 C 352.707031 624.574219 351.566406 625.019531 350.285156 625.277344 C 349.003906 625.535156 347.699219 625.660156 346.367188 625.660156 C 345.011719 625.660156 343.683594 625.527344 342.386719 625.253906 C 341.085938 624.980469 339.933594 624.53125 338.921875 623.898438 C 337.910156 623.261719 337.078125 622.425781 336.429688 621.382813 C 335.78125 620.339844 335.425781 619.035156 335.367188 617.464844 L 341.480469 617.464844 C 341.480469 618.164063 341.621094 618.757813 341.910156 619.257813 "/>
<path style=" stroke:none;fill-rule:nonzero;fill:rgb(0%,0%,0%);fill-opacity:1;" d="M 373.535156 608.300781 C 374.105469 606.777344 374.921875 605.480469 375.980469 604.40625 C 377.035156 603.335938 378.304688 602.503906 379.78125 601.914063 C 381.261719 601.328125 382.921875 601.03125 384.765625 601.03125 C 386.605469 601.03125 388.273438 601.328125 389.765625 601.914063 C 391.261719 602.503906 392.535156 603.335938 393.59375 604.40625 C 394.648438 605.480469 395.464844 606.777344 396.039063 608.300781 C 396.609375 609.824219 396.898438 611.523438 396.898438 613.394531 C 396.898438 615.265625 396.609375 616.957031 396.039063 618.464844 C 395.464844 619.976563 394.648438 621.265625 393.59375 622.335938 C 392.535156 623.410156 391.261719 624.230469 389.765625 624.804688 C 388.273438 625.378906 386.605469 625.664063 384.765625 625.664063 C 382.921875 625.664063 381.261719 625.378906 379.78125 624.804688 C 378.304688 624.230469 377.035156 623.410156 375.980469 622.335938 C 374.921875 621.265625 374.105469 619.976563 373.535156 618.464844 C 372.960938 616.957031 372.671875 615.265625 372.671875 613.394531 C 372.671875 611.523438 372.960938 609.824219 373.535156 608.300781 Z M 379.375 616.132813 C 379.554688 617.023438 379.867188 617.824219 380.304688 618.535156 C 380.742188 619.242188 381.320313 619.808594 382.046875 620.230469 C 382.769531 620.652344 383.675781 620.863281 384.761719 620.863281 C 385.851563 620.863281 386.761719 620.652344 387.503906 620.230469 C 388.242188 619.808594 388.828125 619.242188 389.265625 618.535156 C 389.703125 617.824219 390.015625 617.023438 390.195313 616.132813 C 390.378906 615.246094 390.46875 614.332031 390.46875 613.394531 C 390.46875 612.457031 390.378906 611.535156 390.195313 610.632813 C 390.015625 609.726563 389.703125 608.929688 389.265625 608.230469 C 388.828125 607.539063 388.242188 606.972656 387.503906 606.535156 C 386.761719 606.097656 385.851563 605.878906 384.761719 605.878906 C 383.675781 605.878906 382.769531 606.097656 382.046875 606.535156 C 381.320313 606.972656 380.742188 607.539063 380.304688 608.230469 C 379.867188 608.929688 379.554688 609.726563 379.375 610.632813 C 379.195313 611.535156 379.101563 612.457031 379.101563 613.394531 C 379.101563 614.332031 379.195313 615.246094 379.375 616.132813 "/>
<path style=" stroke:none;fill-rule:nonzero;fill:rgb(0%,0%,0%);fill-opacity:1;" d="M 416.910156 625.074219 L 416.910156 621.816406 L 416.773438 621.816406 C 415.960938 623.175781 414.902344 624.15625 413.605469 624.761719 C 412.304688 625.363281 410.980469 625.664063 409.621094 625.664063 C 407.902344 625.664063 406.488281 625.4375 405.386719 624.984375 C 404.285156 624.53125 403.417969 623.890625 402.785156 623.0625 C 402.148438 622.230469 401.703125 621.21875 401.449219 620.027344 C 401.191406 618.835938 401.066406 617.515625 401.066406 616.066406 L 401.066406 601.667969 L 407.492188 601.667969 L 407.492188 614.890625 C 407.492188 616.820313 407.796875 618.261719 408.398438 619.214844 C 409.003906 620.164063 410.074219 620.640625 411.613281 620.640625 C 413.367188 620.640625 414.632813 620.117188 415.417969 619.074219 C 416.203125 618.035156 416.59375 616.324219 416.59375 613.9375 L 416.59375 601.667969 L 423.023438 601.667969 L 423.023438 625.074219 L 416.910156 625.074219 "/>
<path style=" stroke:none;fill-rule:nonzero;fill:rgb(0%,0%,0%);fill-opacity:1;" d="M 434.023438 601.667969 L 434.023438 606.015625 L 434.113281 606.015625 C 434.414063 605.289063 434.824219 604.617188 435.335938 604 C 435.851563 603.382813 436.4375 602.851563 437.101563 602.414063 C 437.765625 601.976563 438.476563 601.636719 439.230469 601.394531 C 439.984375 601.15625 440.769531 601.035156 441.585938 601.035156 C 442.007813 601.035156 442.476563 601.109375 442.988281 601.261719 L 442.988281 607.238281 C 442.6875 607.179688 442.324219 607.125 441.902344 607.078125 C 441.480469 607.035156 441.070313 607.011719 440.679688 607.011719 C 439.503906 607.011719 438.503906 607.207031 437.691406 607.601563 C 436.875 607.992188 436.21875 608.527344 435.722656 609.207031 C 435.222656 609.886719 434.871094 610.675781 434.65625 611.585938 C 434.445313 612.492188 434.339844 613.46875 434.339844 614.527344 L 434.339844 625.078125 L 427.914063 625.078125 L 427.914063 601.667969 L 434.023438 601.667969 "/>
<path style=" stroke:none;fill-rule:nonzero;fill:rgb(0%,0%,0%);fill-opacity:1;" d="M 478.261719 625.074219 L 474.09375 609.363281 L 474.003906 609.363281 L 470.019531 625.074219 L 463.363281 625.074219 L 455.941406 601.667969 L 462.730469 601.667969 L 467.03125 617.558594 L 467.121094 617.558594 L 471.015625 601.667969 L 477.265625 601.667969 L 481.25 617.515625 L 481.339844 617.515625 L 485.640625 601.667969 L 492.253906 601.667969 L 484.871094 625.074219 L 478.261719 625.074219 "/>
<path style=" stroke:none;fill-rule:nonzero;fill:rgb(0%,0%,0%);fill-opacity:1;" d="M 495.105469 608.300781 C 495.679688 606.777344 496.492188 605.480469 497.550781 604.40625 C 498.605469 603.335938 499.871094 602.503906 501.351563 601.914063 C 502.832031 601.328125 504.492188 601.03125 506.335938 601.03125 C 508.175781 601.03125 509.84375 601.328125 511.335938 601.914063 C 512.832031 602.503906 514.105469 603.335938 515.164063 604.40625 C 516.21875 605.480469 517.035156 606.777344 517.609375 608.300781 C 518.179688 609.824219 518.46875 611.523438 518.46875 613.394531 C 518.46875 615.265625 518.179688 616.957031 517.609375 618.464844 C 517.035156 619.976563 516.21875 621.265625 515.164063 622.335938 C 514.105469 623.410156 512.832031 624.230469 511.335938 624.804688 C 509.84375 625.378906 508.175781 625.664063 506.335938 625.664063 C 504.492188 625.664063 502.832031 625.378906 501.351563 624.804688 C 499.871094 624.230469 498.605469 623.410156 497.550781 622.335938 C 496.492188 621.265625 495.679688 619.976563 495.105469 618.464844 C 494.53125 616.957031 494.242188 615.265625 494.242188 613.394531 C 494.242188 611.523438 494.53125 609.824219 495.105469 608.300781 Z M 500.945313 616.132813 C 501.128906 617.023438 501.433594 617.824219 501.871094 618.535156 C 502.3125 619.242188 502.890625 619.808594 503.617188 620.230469 C 504.34375 620.652344 505.246094 620.863281 506.335938 620.863281 C 507.421875 620.863281 508.332031 620.652344 509.074219 620.230469 C 509.8125 619.808594 510.402344 619.242188 510.839844 618.535156 C 511.277344 617.824219 511.585938 617.023438 511.765625 616.132813 C 511.949219 615.246094 512.039063 614.332031 512.039063 613.394531 C 512.039063 612.457031 511.949219 611.535156 511.765625 610.632813 C 511.585938 609.726563 511.277344 608.929688 510.839844 608.230469 C 510.402344 607.539063 509.8125 606.972656 509.074219 606.535156 C 508.332031 606.097656 507.421875 605.878906 506.335938 605.878906 C 505.246094 605.878906 504.34375 606.097656 503.617188 606.535156 C 502.894531 606.972656 502.3125 607.539063 501.871094 608.230469 C 501.433594 608.929688 501.125 609.726563 500.945313 610.632813 C 500.765625 611.535156 500.671875 612.457031 500.671875 613.394531 C 500.671875 614.332031 500.765625 615.246094 500.945313 616.132813 "/>
<path style=" stroke:none;fill-rule:nonzero;fill:rgb(0%,0%,0%);fill-opacity:1;" d="M 528.746094 601.667969 L 528.746094 606.015625 L 528.835938 606.015625 C 529.136719 605.289063 529.546875 604.617188 530.058594 604 C 530.570313 603.382813 531.160156 602.851563 531.824219 602.414063 C 532.488281 601.976563 533.195313 601.636719 533.953125 601.394531 C 534.703125 601.15625 535.488281 601.035156 536.304688 601.035156 C 536.726563 601.035156 537.195313 601.109375 537.710938 601.261719 L 537.710938 607.238281 C 537.40625 607.179688 537.046875 607.125 536.621094 607.078125 C 536.199219 607.035156 535.792969 607.011719 535.402344 607.011719 C 534.222656 607.011719 533.226563 607.207031 532.414063 607.601563 C 531.597656 607.992188 530.941406 608.527344 530.441406 609.207031 C 529.945313 609.886719 529.589844 610.675781 529.378906 611.585938 C 529.167969 612.492188 529.0625 613.46875 529.0625 614.527344 L 529.0625 625.078125 L 522.632813 625.078125 L 522.632813 601.667969 L 528.746094 601.667969 "/>
<path style=" stroke:none;fill-rule:nonzero;fill:rgb(0%,0%,0%);fill-opacity:1;" d="M 546.855469 592.746094 L 546.855469 625.074219 L 540.425781 625.074219 L 540.425781 592.746094 L 546.855469 592.746094 "/>
<path style=" stroke:none;fill-rule:nonzero;fill:rgb(0%,0%,0%);fill-opacity:1;" d="M 568.542969 622.085938 C 567.789063 623.355469 566.800781 624.269531 565.578125 624.824219 C 564.355469 625.386719 562.972656 625.664063 561.433594 625.664063 C 559.683594 625.664063 558.144531 625.324219 556.816406 624.644531 C 555.488281 623.964844 554.394531 623.046875 553.535156 621.882813 C 552.671875 620.722656 552.023438 619.386719 551.585938 617.878906 C 551.148438 616.367188 550.929688 614.796875 550.929688 613.167969 C 550.929688 611.597656 551.148438 610.082031 551.585938 608.617188 C 552.023438 607.152344 552.671875 605.863281 553.535156 604.746094 C 554.394531 603.628906 555.472656 602.730469 556.769531 602.050781 C 558.066406 601.371094 559.578125 601.03125 561.296875 601.03125 C 562.6875 601.03125 564.007813 601.328125 565.261719 601.914063 C 566.511719 602.503906 567.503906 603.371094 568.226563 604.519531 L 568.316406 604.519531 L 568.316406 592.746094 L 574.746094 592.746094 L 574.746094 625.074219 L 568.632813 625.074219 L 568.632813 622.085938 Z M 568.269531 610.519531 C 568.089844 609.628906 567.78125 608.84375 567.34375 608.164063 C 566.90625 607.484375 566.339844 606.9375 565.644531 606.511719 C 564.949219 606.089844 564.074219 605.878906 563.019531 605.878906 C 561.964844 605.878906 561.070313 606.089844 560.347656 606.511719 C 559.625 606.9375 559.042969 607.492188 558.605469 608.1875 C 558.164063 608.882813 557.851563 609.675781 557.652344 610.566406 C 557.457031 611.457031 557.359375 612.382813 557.359375 613.351563 C 557.359375 614.253906 557.464844 615.160156 557.675781 616.066406 C 557.886719 616.972656 558.226563 617.78125 558.695313 618.488281 C 559.164063 619.199219 559.75 619.773438 560.460938 620.207031 C 561.171875 620.644531 562.023438 620.863281 563.019531 620.863281 C 564.074219 620.863281 564.957031 620.652344 565.667969 620.230469 C 566.378906 619.808594 566.941406 619.242188 567.367188 618.535156 C 567.785156 617.824219 568.089844 617.019531 568.269531 616.109375 C 568.453125 615.203125 568.542969 614.269531 568.542969 613.304688 C 568.542969 612.335938 568.453125 611.410156 568.269531 610.519531 "/>
<path style=" stroke:none;fill-rule:nonzero;fill:rgb(0%,0%,0%);fill-opacity:1;" d="M 72.914063 585.488281 L 72.914063 579.085938 L 582.289063 579.085938 L 582.289063 585.488281 L 72.914063 585.488281 "/>
<path style="fill:none;stroke-width:16;stroke-linecap:butt;stroke-linejoin:miter;stroke:rgb(0%,0%,0%);stroke-opacity:1;stroke-miterlimit:10;" d="M 8.007813 6527.992188 L 6528.007813 6527.992188 L 6528.007813 7.992188 L 8.007813 7.992188 Z M 8.007813 6527.992188 " transform="matrix(0.1,0,0,-0.1,0,653.6)"/>
</g>
</svg>
